<svg width="6" height="12" viewBox="0 0 6 12" fill="none" xmlns="http://www.w3.org/2000/svg">
<path d="M5.83876 1.01176C5.89027 0.954507 5.93053 0.887163 5.95726 0.813569C5.98398 0.739975 5.99665 0.661572 5.99453 0.582837C5.99241 0.504102 5.97554 0.426576 5.9449 0.354687C5.91425 0.282798 5.87043 0.217952 5.81592 0.163853C5.76142 0.109754 5.6973 0.0674608 5.62724 0.039388C5.55717 0.0113152 5.48253 -0.00198744 5.40757 0.00023986C5.33261 0.00246716 5.2588 0.0201807 5.19036 0.052369C5.12192 0.0845573 5.06018 0.13059 5.00868 0.187839L0.156051 5.58467C0.0558373 5.69601 0 5.84341 0 5.99663C0 6.14985 0.0558373 6.29725 0.156051 6.40859L5.00868 11.806C5.05984 11.8645 5.12156 11.9118 5.19026 11.945C5.25895 11.9782 5.33325 11.9968 5.40883 11.9996C5.48442 12.0024 5.55978 11.9895 5.63055 11.9614C5.70131 11.9334 5.76607 11.8909 5.82106 11.8363C5.87605 11.7818 5.92017 11.7163 5.95087 11.6437C5.98156 11.5711 5.99822 11.4928 5.99986 11.4134C6.00151 11.334 5.98812 11.255 5.96046 11.1811C5.9328 11.1071 5.89144 11.0397 5.83876 10.9827L1.35608 5.99663L5.83876 1.01176Z" fill="#97A0B1"/>
</svg>
