<svg width="24" height="24" viewBox="0 0 24 24" fill="none" xmlns="http://www.w3.org/2000/svg">
<rect x="0.5" y="0.5" width="23" height="23" rx="11.5" stroke="#97A0B1"/>
<path d="M13.3141 11.9001L16.8491 8.36406C16.9446 8.27182 17.0208 8.16147 17.0732 8.03947C17.1256 7.91746 17.1532 7.78624 17.1543 7.65346C17.1555 7.52069 17.1302 7.38901 17.0799 7.26611C17.0296 7.14321 16.9554 7.03156 16.8615 6.93767C16.7676 6.84378 16.6559 6.76952 16.533 6.71924C16.4101 6.66896 16.2784 6.64366 16.1457 6.64481C16.0129 6.64597 15.8817 6.67355 15.7597 6.72596C15.6377 6.77837 15.5273 6.85455 15.4351 6.95006L11.8991 10.4851L8.36406 6.95006C8.27182 6.85455 8.16147 6.77837 8.03947 6.72596C7.91746 6.67355 7.78624 6.64597 7.65346 6.64481C7.52069 6.64366 7.38901 6.66896 7.26611 6.71924C7.14321 6.76952 7.03156 6.84378 6.93767 6.93767C6.84378 7.03156 6.76952 7.14321 6.71924 7.26611C6.66896 7.38901 6.64366 7.52069 6.64481 7.65346C6.64597 7.78624 6.67355 7.91746 6.72596 8.03947C6.77837 8.16147 6.85455 8.27182 6.95006 8.36406L10.4851 11.8991L6.95006 15.4351C6.85455 15.5273 6.77837 15.6377 6.72596 15.7597C6.67355 15.8817 6.64597 16.0129 6.64481 16.1457C6.64366 16.2784 6.66896 16.4101 6.71924 16.533C6.76952 16.6559 6.84378 16.7676 6.93767 16.8615C7.03156 16.9554 7.14321 17.0296 7.26611 17.0799C7.38901 17.1302 7.52069 17.1555 7.65346 17.1543C7.78624 17.1532 7.91746 17.1256 8.03947 17.0732C8.16147 17.0208 8.27182 16.9446 8.36406 16.8491L11.8991 13.3141L15.4351 16.8491C15.5273 16.9446 15.6377 17.0208 15.7597 17.0732C15.8817 17.1256 16.0129 17.1532 16.1457 17.1543C16.2784 17.1555 16.4101 17.1302 16.533 17.0799C16.6559 17.0296 16.7676 16.9554 16.8615 16.8615C16.9554 16.7676 17.0296 16.6559 17.0799 16.533C17.1302 16.4101 17.1555 16.2784 17.1543 16.1457C17.1532 16.0129 17.1256 15.8817 17.0732 15.7597C17.0208 15.6377 16.9446 15.5273 16.8491 15.4351L13.3141 11.9001Z" fill="#97A0B1"/>
</svg>
