<svg width="24" height="24" viewBox="0 0 24 24" fill="none" xmlns="http://www.w3.org/2000/svg">
<path d="M3.752 6.92503C3.74668 6.82667 3.72204 6.73032 3.67949 6.64148C3.63693 6.55264 3.5773 6.47306 3.50399 6.40727C3.43067 6.34148 3.34512 6.29077 3.25221 6.25804C3.15931 6.22532 3.06086 6.21121 2.9625 6.21653C2.86414 6.22185 2.76779 6.24649 2.67895 6.28904C2.59012 6.33159 2.51053 6.39123 2.44474 6.46454C2.37895 6.53785 2.32824 6.62341 2.29552 6.71631C2.26279 6.80922 2.24868 6.90767 2.254 7.00603L3.752 6.92503ZM4.718 3.09203C4.58667 3.23717 4.51728 3.4279 4.52465 3.6235C4.53202 3.8191 4.61558 4.00407 4.75746 4.13891C4.89935 4.27375 5.08834 4.34778 5.28406 4.34518C5.47978 4.34259 5.66674 4.26358 5.805 4.12503L4.718 3.09203ZM10.664 19.812C10.7474 19.8658 10.8406 19.9024 10.9383 19.9199C11.036 19.9374 11.1361 19.9353 11.233 19.9137C11.3298 19.8922 11.4214 19.8517 11.5025 19.7945C11.5836 19.7373 11.6525 19.6646 11.7053 19.5806C11.7581 19.4966 11.7937 19.403 11.81 19.3051C11.8264 19.2073 11.8231 19.1071 11.8005 19.0105C11.7779 18.9139 11.7363 18.8228 11.6782 18.7424C11.6201 18.6619 11.5466 18.5938 11.462 18.542L10.664 19.812ZM15.113 20.058C14.9182 20.0173 14.7152 20.0557 14.5487 20.1646C14.3821 20.2736 14.2657 20.4442 14.225 20.639C14.1843 20.8338 14.2226 21.0368 14.3316 21.2034C14.4405 21.3699 14.6112 21.4863 14.806 21.527L15.113 20.058ZM15.645 15.544L16.1 15.064L15.012 14.031L14.557 14.511L15.645 15.544ZM17.599 14.862L19.509 15.962L20.258 14.662L18.347 13.562L17.599 14.862ZM19.878 18.242L18.457 19.737L19.545 20.771L20.965 19.275L19.878 18.242ZM8.359 15.959C4.483 11.878 3.833 8.43503 3.752 6.92503L2.254 7.00603C2.354 8.85603 3.138 12.64 7.272 16.992L8.359 15.959ZM9.735 9.32203L10.021 9.02003L8.934 7.98703L8.647 8.28903L9.735 9.32203ZM10.247 5.26003L8.986 3.47703L7.761 4.34303L9.021 6.12603L10.247 5.26003ZM9.19 8.80503C9.01002 8.63158 8.82835 8.45991 8.645 8.29003L8.643 8.29203L8.64 8.29503C8.62225 8.3134 8.60556 8.33276 8.59 8.35303C8.49198 8.48278 8.41441 8.62678 8.36 8.78003C8.262 9.05503 8.21 9.41903 8.276 9.87303C8.406 10.765 8.991 11.964 10.518 13.573L11.606 12.539C10.178 11.036 9.826 10.111 9.76 9.65503C9.728 9.43503 9.76 9.32003 9.773 9.28303L9.781 9.26403C9.77282 9.27719 9.76345 9.28958 9.753 9.30103C9.74714 9.30782 9.74114 9.31549 9.735 9.32203L9.19 8.80503ZM10.518 13.572C12.041 15.176 13.191 15.806 14.068 15.949C14.519 16.022 14.884 15.963 15.16 15.854C15.3133 15.7941 15.4558 15.7097 15.582 15.604L15.617 15.57L15.631 15.556C15.6334 15.5541 15.6357 15.5521 15.638 15.55L15.641 15.547L15.642 15.545C15.642 15.545 15.644 15.544 15.1 15.027C14.556 14.511 14.557 14.51 14.557 14.509L14.559 14.508L14.561 14.505L14.567 14.5C14.5821 14.4854 14.5978 14.4714 14.614 14.458C14.623 14.452 14.622 14.454 14.609 14.459C14.589 14.467 14.499 14.499 14.309 14.468C13.907 14.402 13.039 14.048 11.606 12.539L10.518 13.572ZM8.986 3.47703C7.972 2.04303 5.944 1.80003 4.718 3.09203L5.805 4.12503C6.328 3.57503 7.249 3.61803 7.761 4.34303L8.986 3.47703ZM18.457 19.737C18.178 20.031 17.887 20.189 17.603 20.217L17.75 21.709C18.497 21.636 19.102 21.238 19.545 20.771L18.457 19.737ZM10.021 9.02003C10.989 8.00103 11.057 6.40703 10.247 5.26003L9.022 6.12603C9.444 6.72303 9.379 7.51903 8.934 7.98703L10.021 9.02003ZM19.509 15.962C20.33 16.435 20.491 17.597 19.878 18.242L20.965 19.275C22.27 17.901 21.89 15.602 20.258 14.662L19.509 15.962ZM16.1 15.064C16.485 14.658 17.086 14.567 17.599 14.862L18.347 13.562C17.248 12.93 15.887 13.111 15.012 14.031L16.1 15.064ZM11.462 18.542C10.479 17.924 9.432 17.088 8.359 15.959L7.272 16.992C8.426 18.207 9.569 19.124 10.664 19.812L11.462 18.542ZM17.602 20.217C16.7691 20.2902 15.9299 20.2366 15.113 20.058L14.806 21.527C15.7725 21.7364 16.7651 21.7977 17.75 21.709L17.602 20.217Z" fill="#2377C6"/>
</svg>
