<svg width="20" height="20" viewBox="0 0 20 20" fill="none" xmlns="http://www.w3.org/2000/svg">
<g clip-path="url(#clip0_2031_162)">
<path d="M8.39789 14.605L9.72089 15.748C10.0109 15.999 10.0439 16.439 9.79589 16.732C9.73705 16.8015 9.665 16.8586 9.58392 16.9C9.50284 16.9415 9.41434 16.9664 9.32356 16.9734C9.23277 16.9804 9.14151 16.9692 9.05505 16.9407C8.96859 16.9121 8.88866 16.8667 8.81989 16.807L7.25489 15.455C7.17886 15.3892 7.11789 15.3078 7.07613 15.2164C7.03437 15.1249 7.0128 15.0255 7.01289 14.925V7.938L1.17089 1.155C0.779893 0.703 1.09989 0 1.69389 0H18.3059C18.8999 0 19.2179 0.704 18.8289 1.155L12.9789 7.939V19.302C12.9789 19.688 12.6689 20 12.2869 20C12.1956 19.9996 12.1053 19.9812 12.0212 19.9459C11.937 19.9107 11.8606 19.8591 11.7963 19.7943C11.7321 19.7295 11.6812 19.6527 11.6466 19.5682C11.6121 19.4837 11.5945 19.3933 11.5949 19.302V7.678C11.5947 7.50987 11.6551 7.3473 11.7649 7.22L16.7879 1.395H3.20989L8.22789 7.22C8.33772 7.3473 8.39807 7.50987 8.39789 7.678V14.605Z" fill="#97A0B1"/>
</g>
<defs>
<clipPath id="clip0_2031_162">
<rect width="20" height="20" fill="white"/>
</clipPath>
</defs>
</svg>
