<svg width="24" height="24" viewBox="0 0 24 24" fill="none" xmlns="http://www.w3.org/2000/svg">
<path d="M13.796 20.804C13.86 20.8293 13.9177 20.842 13.969 20.842C14.0203 20.842 14.078 20.8293 14.142 20.804L19.958 19.012C19.938 18.708 19.8473 18.489 19.686 18.355C19.5233 18.221 19.3397 18.154 19.135 18.154H14.39C13.9673 18.154 13.584 18.1373 13.24 18.104C12.896 18.0707 12.5443 17.9913 12.185 17.866L10.471 17.314C10.3343 17.2687 10.236 17.1787 10.176 17.044C10.116 16.9093 10.1087 16.776 10.154 16.644C10.1993 16.512 10.2847 16.4153 10.41 16.354C10.5353 16.2927 10.668 16.285 10.808 16.331L12.358 16.892C12.6793 17.0013 13.0353 17.0713 13.426 17.102C13.816 17.1327 14.299 17.15 14.875 17.154H15.135C15.135 16.842 15.0773 16.59 14.962 16.398C14.8467 16.206 14.6823 16.072 14.469 15.996L8.715 13.884C8.677 13.8713 8.64167 13.862 8.609 13.856C8.57633 13.85 8.54133 13.8467 8.504 13.846H6.404V18.654L13.796 20.804ZM13.541 21.792L6.404 19.704C6.30867 20.0987 6.107 20.4133 5.799 20.648C5.491 20.8827 5.15433 21 4.789 21H4.019C3.575 21 3.195 20.8417 2.879 20.525C2.56233 20.209 2.404 19.829 2.404 19.385V14.46C2.404 14.016 2.562 13.636 2.878 13.32C3.19467 13.0033 3.575 12.845 4.019 12.845H8.482C8.57533 12.845 8.671 12.8557 8.769 12.877C8.86767 12.8977 8.95933 12.9223 9.044 12.951L14.823 15.068C15.181 15.204 15.489 15.4483 15.747 15.801C16.0057 16.1537 16.135 16.6043 16.135 17.153H19.135C19.737 17.153 20.1983 17.3413 20.519 17.718C20.8397 18.0953 21 18.5737 21 19.153C21 19.353 20.946 19.5217 20.838 19.659C20.73 19.7963 20.5717 19.9 20.363 19.97L14.479 21.785C14.3337 21.8263 14.1803 21.8503 14.019 21.857C13.8577 21.8637 13.698 21.8417 13.54 21.791M3.404 19.384C3.404 19.564 3.46167 19.7117 3.577 19.827C3.69233 19.9423 3.83967 20 4.019 20H4.789C4.96833 20 5.11567 19.952 5.231 19.856C5.34633 19.76 5.404 19.6027 5.404 19.384V13.846H4.019C3.83967 13.846 3.69233 13.9037 3.577 14.019C3.46167 14.1343 3.404 14.282 3.404 14.462V19.384ZM15.692 11.758C15.4933 11.758 15.298 11.7217 15.106 11.649C14.9147 11.5763 14.7397 11.4677 14.581 11.323L11.927 8.777C11.487 8.35367 11.12 7.88033 10.826 7.357C10.532 6.833 10.385 6.263 10.385 5.647C10.385 4.911 10.6423 4.286 11.157 3.772C11.671 3.25733 12.2953 3 13.03 3C13.576 3 14.0727 3.14767 14.52 3.443C14.9673 3.73833 15.3577 4.097 15.691 4.519C16.0243 4.097 16.415 3.73833 16.863 3.443C17.3097 3.14767 17.8063 3 18.353 3C19.0883 3 19.713 3.25733 20.227 3.772C20.741 4.28667 20.9987 4.91133 21 5.646C21 6.26333 20.854 6.83367 20.562 7.357C20.2693 7.88033 19.903 8.35367 19.463 8.777L16.803 11.323C16.645 11.4683 16.47 11.577 16.278 11.649C16.086 11.721 15.8907 11.7573 15.692 11.758ZM16.116 10.604L18.686 8.141C19.0413 7.79833 19.3493 7.419 19.61 7.003C19.87 6.587 20 6.13467 20 5.646C20 5.19 19.84 4.80167 19.52 4.481C19.2 4.16033 18.811 4 18.353 4C17.953 4 17.5943 4.11967 17.277 4.359C16.9597 4.59767 16.6747 4.87933 16.422 5.204L16.255 5.406C16.1103 5.588 15.9237 5.679 15.695 5.679C15.4663 5.679 15.2773 5.588 15.128 5.406L14.961 5.204C14.7077 4.87933 14.4227 4.59767 14.106 4.359C13.7887 4.11967 13.43 4 13.03 4C12.5733 4 12.185 4.16 11.865 4.48C11.5443 4.80133 11.384 5.19 11.384 5.646C11.384 6.13467 11.514 6.587 11.774 7.003C12.034 7.419 12.3417 7.79833 12.697 8.141L15.268 10.604C15.3833 10.7193 15.5243 10.777 15.691 10.777C15.8577 10.777 15.9987 10.7193 16.114 10.604" fill="#2377C6"/>
</svg>
