<svg width="24" height="24" viewBox="0 0 24 24" fill="none" xmlns="http://www.w3.org/2000/svg">
<g clip-path="url(#clip0_2031_141)">
<path d="M11.5573 2C11.8299 2.00031 12.0921 2.10875 12.2904 2.30316C12.4886 2.49758 12.6079 2.76328 12.6239 3.04599C12.6399 3.32871 12.5513 3.60709 12.3764 3.82426C12.2014 4.04143 11.9532 4.181 11.6824 4.21444L11.5573 4.22222H6.20898C5.94698 4.22226 5.69411 4.32217 5.49833 4.50302C5.30254 4.68386 5.17746 4.93305 5.14681 5.20333L5.13932 5.33333V18.6667C5.13935 18.9388 5.23554 19.2015 5.40964 19.4049C5.58373 19.6082 5.82363 19.7382 6.08383 19.77L6.20898 19.7778H11.0224C11.2951 19.7781 11.5573 19.8865 11.7556 20.0809C11.9538 20.2754 12.0731 20.5411 12.0891 20.8238C12.1051 21.1065 12.0165 21.3849 11.8415 21.602C11.6665 21.8192 11.4183 21.9588 11.1476 21.9922L11.0224 22H6.20898C5.39046 22 4.60287 21.6752 4.00734 21.0919C3.41181 20.5086 3.05337 19.711 3.00535 18.8622L3 18.6667V5.33333C2.99995 4.4831 3.31269 3.66498 3.87422 3.04638C4.43574 2.42777 5.20361 2.05544 6.02072 2.00556L6.20898 2H11.5573ZM17.6618 8.07111L20.6868 11.2144C20.8873 11.4228 21 11.7054 21 12C21 12.2946 20.8873 12.5772 20.6868 12.7856L17.6618 15.9289C17.4611 16.1372 17.1889 16.2542 16.9052 16.2541C16.6214 16.254 16.3494 16.1368 16.1488 15.9283C15.9482 15.7198 15.8356 15.4371 15.8357 15.1424C15.8358 14.8476 15.9486 14.565 16.1493 14.3567L17.3484 13.1111H11.5573C11.2736 13.1111 11.0015 12.994 10.8009 12.7857C10.6003 12.5773 10.4876 12.2947 10.4876 12C10.4876 11.7053 10.6003 11.4227 10.8009 11.2143C11.0015 11.006 11.2736 10.8889 11.5573 10.8889H17.3484L16.1493 9.64333C15.9486 9.43499 15.8358 9.15236 15.8357 8.85762C15.8356 8.56287 15.9482 8.28016 16.1488 8.07167C16.3494 7.86318 16.6214 7.74599 16.9052 7.74589C17.1889 7.74578 17.4611 7.86277 17.6618 8.07111Z" fill="#333333"/>
</g>
<defs>
<clipPath id="clip0_2031_141">
<rect width="24" height="24" fill="white"/>
</clipPath>
</defs>
</svg>
