<svg width="24" height="24" viewBox="0 0 24 24" fill="none" xmlns="http://www.w3.org/2000/svg">
<g clip-path="url(#clip0_2056_313)">
<path d="M9.2 23.125C8.89474 22.2478 8.32401 21.4874 7.567 20.9493C6.81 20.4113 5.90426 20.1221 4.9755 20.1221C4.04674 20.1221 3.141 20.4113 2.384 20.9493C1.62699 21.4874 1.05626 22.2478 0.751 23.125M23.25 23.125C22.9447 22.2478 22.374 21.4874 21.617 20.9493C20.86 20.4113 19.9543 20.1221 19.0255 20.1221C18.0967 20.1221 17.191 20.4113 16.434 20.9493C15.677 21.4874 15.1063 22.2478 14.801 23.125M0.75 6.875H4.25M0.75 6.875L2.75 8.875M0.75 6.875L2.75 4.875M23.25 6.875H19.75M23.25 6.875L21.25 8.875M23.25 6.875L21.25 4.875M4.974 19.375C5.67019 19.375 6.33787 19.0984 6.83016 18.6062C7.32244 18.1139 7.599 17.4462 7.599 16.75C7.599 16.0538 7.32244 15.3861 6.83016 14.8938C6.33787 14.4016 5.67019 14.125 4.974 14.125C4.27781 14.125 3.61013 14.4016 3.11784 14.8938C2.62556 15.3861 2.349 16.0538 2.349 16.75C2.349 17.4462 2.62556 18.1139 3.11784 18.6062C3.61013 19.0984 4.27781 19.375 4.974 19.375ZM19.026 19.375C19.7222 19.375 20.3899 19.0984 20.8822 18.6062C21.3744 18.1139 21.651 17.4462 21.651 16.75C21.651 16.0538 21.3744 15.3861 20.8822 14.8938C20.3899 14.4016 19.7222 14.125 19.026 14.125C18.3298 14.125 17.6621 14.4016 17.1698 14.8938C16.6776 15.3861 16.401 16.0538 16.401 16.75C16.401 17.4462 16.6776 18.1139 17.1698 18.6062C17.6621 19.0984 18.3298 19.375 19.026 19.375ZM12 10.875C13.3261 10.875 14.5979 10.3482 15.5355 9.41053C16.4732 8.47285 17 7.20108 17 5.875C17 4.54892 16.4732 3.27715 15.5355 2.33947C14.5979 1.40178 13.3261 0.875 12 0.875C10.6739 0.875 9.40215 1.40178 8.46447 2.33947C7.52678 3.27715 7 4.54892 7 5.875C7 7.20108 7.52678 8.47285 8.46447 9.41053C9.40215 10.3482 10.6739 10.875 12 10.875Z" stroke="#2377C6" stroke-linecap="round" stroke-linejoin="round"/>
<path d="M10 6.375L11.083 7.458C11.1343 7.50927 11.1962 7.54875 11.2644 7.5737C11.3325 7.59864 11.4053 7.60846 11.4776 7.60247C11.5499 7.59647 11.62 7.57481 11.6831 7.53898C11.7462 7.50316 11.8008 7.45402 11.843 7.395L14 4.375" stroke="#2377C6" stroke-linecap="round" stroke-linejoin="round"/>
</g>
<defs>
<clipPath id="clip0_2056_313">
<rect width="24" height="24" fill="white"/>
</clipPath>
</defs>
</svg>
